<svg width="1080" height="1080" viewBox="0 0 1080 1080" fill="none" xmlns="http://www.w3.org/2000/svg">
<g clip-path="url(#clip0_524_18)">
<rect width="1080" height="1080" fill="#010326"/>
<path fill-rule="evenodd" clip-rule="evenodd" d="M1039.29 327.275L1039.07 326.734C1012.99 261.211 976.144 205.352 928.576 158.425L928.108 157.963L927.649 157.492C880.867 109.417 824.769 71.3206 758.614 43.3277L758.236 43.1678L757.86 43.003C693.072 14.6097 621.279 0 541.625 0C461.981 0 389.514 14.607 323.45 43.1402L323.231 43.2348L323.011 43.3277C257.024 71.2496 200.339 109.848 152.351 159.162C105.238 207.576 67.9641 264.593 40.6192 330.829L40.5527 330.99L40.4853 331.151C13.6703 395.12 0 464.512 0 540V543.339C0 618.916 13.1662 689.082 39.0865 754.396C66.2842 819.101 103.343 875.368 150.268 923.706C198.32 970.995 255.277 1009.31 321.761 1038.5C386.638 1065.89 458.574 1080 538.375 1080C618.241 1080 690.229 1065.87 755.147 1038.43C822.596 1009.27 879.279 970.544 926.025 922.508C974.455 872.74 1012.21 815.6 1039.45 750.682C1066.35 685.447 1080 615.42 1080 540V536.661C1080 461.173 1066.33 391.78 1039.51 327.812L1039.29 327.275ZM703.442 144.245C652.191 120.056 596.865 108.279 538.375 108.279C479.306 108.279 423.639 119.302 372.319 142.29L372.032 142.419L371.746 142.55C358.055 148.845 344.846 155.825 332.13 163.486H163.486V368.11C162.828 369.751 162.177 371.398 161.534 373.051L161.381 373.443L161.233 373.837C142.073 425.029 132.776 479.487 132.776 536.661V540C132.776 597.188 142.077 652.004 161.05 703.996L161.285 704.64L161.534 705.28C162.176 706.931 162.827 708.577 163.486 710.216V916.514H336.555C348.544 923.844 360.931 930.621 373.709 936.841L374.632 937.29L375.569 937.71C426.889 960.698 482.555 971.721 541.625 971.721C599.821 971.721 654.912 960.619 706.056 937.71C720.227 931.362 733.848 924.297 746.901 916.514H916.514V709.501C916.674 709.077 916.834 708.653 916.993 708.229C937.26 656.017 947.224 600.885 947.224 543.339V540C947.224 482.546 937.292 427.499 917.09 375.36C916.899 374.839 916.707 374.318 916.514 373.797V163.486H740.936C728.881 156.48 716.379 150.066 703.442 144.245Z" fill="#EAF205"/>
<path d="M858 858V222H707.177L540 490.937L372.823 222H222V858H359.194V445.509L536.366 714.446H540L718.989 442.783V858H858Z" fill="white"/>
</g>
<defs>
<clipPath id="clip0_524_18">
<rect width="1080" height="1080" fill="white"/>
</clipPath>
</defs>
</svg>
